<svg width="24" height="24" viewBox="0 0 24 24" fill="none" xmlns="http://www.w3.org/2000/svg">
<g clip-path="url(#clip0_16_70)">
<path d="M23.5876 15.1304C23.8565 14.1324 24 13.083 24 12L23.5876 8.86959C23.2868 7.75333 22.829 6.70147 22.2393 5.73914L19.4709 2.60869C17.4223 0.976816 14.8277 0.00120207 12.0052 0H11.9948C9.17234 0.00120158 6.57774 0.976815 4.5291 2.60869L1.76073 5.73914C1.17105 6.70147 0.713227 7.75333 0.412405 8.86959L0 12L1.13056e-06 12.0053C0.000465378 13.0864 0.143897 14.1341 0.412415 15.1304L1.76073 18.2609C2.49517 19.4594 3.43415 20.5191 4.52911 21.3913L12 24L19.4709 21.3913C20.5658 20.5191 21.5048 19.4594 22.2393 18.2609L23.5876 15.1304Z" fill="#EEEEEE"/>
<path d="M23.5876 8.86951C23.8565 9.86751 24 10.917 24 12H0C0 10.917 0.143461 9.86751 0.412417 8.86951H23.5876Z" fill="#D80027"/>
<path d="M19.4709 2.60864C20.5658 3.48085 21.5048 4.54052 22.2393 5.7391H1.76073C2.49517 4.54052 3.43416 3.48085 4.52911 2.60864H19.4709Z" fill="#D80027"/>
<path d="M22.2393 18.2608C22.829 17.2985 23.2868 16.2466 23.5876 15.1304H0.412404C0.713226 16.2466 1.17105 17.2985 1.76072 18.2608H22.2393Z" fill="#D80027"/>
<path d="M19.4709 21.3913H4.5291C6.57651 23.0222 9.16926 23.9976 11.9897 24H12.0103C14.8307 23.9976 17.4235 23.0222 19.4709 21.3913Z" fill="#D80027"/>
<path d="M0 11.5118C0.256135 5.11073 5.52635 0 11.9902 0C11.9935 0 11.9967 1.29233e-06 12 3.87651e-06V12H0V11.5118Z" fill="#0052B4"/>
<path d="M9.83728 8.16433L9.91002 8.7826L9.36449 9.00081L9.94639 9.14628L9.98276 9.72818L10.3101 9.21902L10.892 9.32812L10.4919 8.8917L10.7829 8.38254L10.2373 8.63712L9.83728 8.16433ZM4.60022 8.16433L4.20016 8.60075L3.65463 8.38254L3.94558 8.8917L3.54553 9.32812L4.16379 9.21902L4.45474 9.72818L4.49111 9.14628L5.07301 9.00081L4.52748 8.7826L4.60022 8.16433ZM10.892 6.45501L10.5283 6.9278L9.98276 6.74596L10.3101 7.21875L9.98276 7.69154L10.5283 7.5097L10.892 7.98249V7.40059L11.4375 7.21875L10.892 7.03691V6.45501ZM3.5819 6.45501V7.03691L3 7.21875L3.5819 7.40059V7.98249L3.90921 7.5097L4.49111 7.69154L4.12742 7.21875L4.49111 6.74596L3.90921 6.9278L3.5819 6.45501ZM10.0191 4.70932L9.94639 5.29122L9.36449 5.43669L9.91002 5.6549L9.83728 6.27317L10.2373 5.83675L10.7829 6.05496L10.4919 5.5458L10.892 5.10937L10.3101 5.21848L10.0191 4.70932ZM4.45474 4.70932L4.16379 5.21848L3.54553 5.10937L3.94558 5.5458L3.65463 6.05496L4.20016 5.83675L4.60022 6.27317L4.52748 5.6549L5.07301 5.43669L4.49111 5.29122L4.45474 4.70932ZM9.32812 3.54553L8.8917 3.94558L8.38254 3.65463L8.63712 4.20016L8.16433 4.60022L8.7826 4.52748L9.00081 5.07301L9.14628 4.49111L9.72818 4.45474L9.21902 4.16379L9.32812 3.54553ZM5.10937 3.54553L5.21848 4.12742L4.70932 4.45474L5.29122 4.49111L5.43669 5.07301L5.69127 4.52748L6.27317 4.60022L5.83675 4.20016L6.05496 3.65463L5.5458 3.94558L5.10937 3.54553ZM7.21875 3L7.03691 3.54553H6.45501L6.9278 3.90921L6.74596 4.45474L7.21875 4.12742L7.69154 4.45474L7.5097 3.90921L7.98249 3.54553H7.40059L7.21875 3ZM9.32812 10.892L8.8917 10.4919L8.38254 10.7829L8.63712 10.2373L8.16433 9.83728L8.7826 9.91002L9.00081 9.36449L9.14628 9.94639L9.72818 9.98276L9.21902 10.2737L9.32812 10.892ZM5.10937 10.892L5.21848 10.3101L4.70932 9.98276L5.29122 9.94639L5.43669 9.36449L5.69127 9.91002L6.27317 9.83728L5.83675 10.2373L6.05496 10.7829L5.5458 10.4919L5.10937 10.892ZM7.21875 11.4375L7.03691 10.892H6.45501L6.9278 10.5283L6.74596 9.98276L7.21875 10.3101L7.69154 9.98276L7.5097 10.5283L7.98249 10.892H7.40059L7.21875 11.4375Z" fill="#EEEEEE"/>
</g>
<defs>
<clipPath id="clip0_16_70">
<rect width="24" height="24" fill="white"/>
</clipPath>
</defs>
</svg>
