<svg width="24" height="24" viewBox="0 0 24 24" fill="none" xmlns="http://www.w3.org/2000/svg">
<circle cx="12" cy="12" r="12" fill="#D80027"/>
<path fill-rule="evenodd" clip-rule="evenodd" d="M6.36167 11.9975C6.36167 15.299 8.95303 17.9754 12.1495 17.9754C13.1461 17.9754 14.0839 17.7151 14.9026 17.2567C13.6183 18.5541 11.8618 19.3548 9.92343 19.3548C5.98927 19.3548 2.79999 16.0608 2.79999 11.9974C2.79999 7.93404 5.98919 4.64001 9.92343 4.64001C11.8617 4.64001 13.6182 5.44068 14.9026 6.73809C14.0839 6.27992 13.1461 6.01956 12.1495 6.01956C8.95303 6.01956 6.36167 8.69603 6.36167 11.9975ZM18.4158 10.521L16.7354 8.12939L16.7336 11.0845L14.0122 11.9959L16.7327 12.9107L16.7309 15.8656L18.4139 13.476L21.1343 14.3908L19.4541 11.9993L21.1372 9.60967L18.4158 10.521Z" fill="#EEEEEE"/>
</svg>
