<!DOCTYPE svg PUBLIC "-//W3C//DTD SVG 1.1//EN" "http://www.w3.org/Graphics/SVG/1.1/DTD/svg11.dtd">

<!-- Uploaded to: SVG Repo, www.svgrepo.com, Transformed by: SVG Repo Mixer Tools -->
<svg fill="#D71633" width="42px" height="42px" viewBox="0 0 512 512" version="1.1" xml:space="preserve" xmlns="http://www.w3.org/2000/svg" xmlns:xlink="http://www.w3.org/1999/xlink">

<g id="SVGRepo_bgCarrier" stroke-width="0"/>

<g id="SVGRepo_tracerCarrier" stroke-linecap="round" stroke-linejoin="round"/>

<g id="SVGRepo_iconCarrier"> <g id="_x35_97_x2C__Command_x2C__computer_x2C__fuction_x2C__process_x2C__progress"> <g> <path d="M449.925,60.977c-3.404-3.387-8.118-5.494-13.276-5.494H75.338 c-5.173,0-9.875,2.107-13.262,5.526c-3.418,3.387-5.524,8.087-5.524,13.245v260.184c0,5.157,2.105,9.856,5.524,13.244 c3.387,3.419,8.089,5.524,13.262,5.524h361.311c5.158,0,9.857-2.105,13.276-5.524c3.387-3.388,5.51-8.087,5.51-13.244V74.254 C455.435,69.096,453.312,64.396,449.925,60.977 M432.313,283.255V78.403H78.802v204.852H432.313z M439.82,74.65v212.357 c0,2.076-1.678,3.754-3.751,3.754H75.047c-2.06,0-3.755-1.678-3.755-3.754V74.65c0-2.076,1.695-3.754,3.755-3.754h361.022 C438.143,70.896,439.82,72.574,439.82,74.65z M299.37,360.715h-86.741l-17.333,65.861h121.408L299.37,360.715z M190.442,434.084 h-0.105H136.21v10.347h239.565v-10.347H190.442z M259.358,330.133c-0.856-0.854-2.061-1.404-3.358-1.404 c-1.313,0-2.502,0.55-3.358,1.404c-0.853,0.854-1.386,2.045-1.386,3.357c0,1.282,0.533,2.473,1.386,3.326 c0.856,0.887,2.046,1.404,3.358,1.404c1.235,0,2.365-0.458,3.204-1.252l0.137-0.152c0.856-0.854,1.39-2.044,1.39-3.326 c0-1.252-0.474-2.38-1.235-3.234L259.358,330.133z M256,321.252c3.372,0,6.439,1.374,8.65,3.571l0.232,0.243 c2.073,2.197,3.354,5.158,3.354,8.424c0,3.357-1.372,6.439-3.587,8.637l-0.287,0.275c-2.197,2.044-5.146,3.326-8.363,3.326 c-3.358,0-6.44-1.373-8.651-3.602c-2.214-2.197-3.604-5.279-3.604-8.637c0-3.387,1.39-6.471,3.587-8.667 C249.546,322.626,252.613,321.252,256,321.252z M97.234,106.727c-2.06,0-3.738-1.68-3.738-3.753c0-2.076,1.678-3.755,3.738-3.755 h53.565c2.074,0,3.751,1.679,3.751,3.755c0,2.073-1.677,3.753-3.751,3.753H97.234z M97.234,126.778 c-2.06,0-3.738-1.679-3.738-3.753c0-2.076,1.678-3.756,3.738-3.756h107.127c2.074,0,3.751,1.68,3.751,3.756 c0,2.074-1.677,3.753-3.751,3.753H97.234z M97.234,146.83c-2.06,0-3.738-1.68-3.738-3.754c0-2.076,1.678-3.755,3.738-3.755 h107.127c2.074,0,3.751,1.679,3.751,3.755c0,2.074-1.677,3.754-3.751,3.754H97.234z M352.961,194.959 c-3.296-3.266-7.826-5.31-12.831-5.31c-5.009,0-9.539,2.044-12.835,5.31c-3.267,3.268-5.309,7.814-5.309,12.818 c0,5.007,2.042,9.553,5.309,12.818c3.296,3.298,7.826,5.313,12.835,5.313c5.005,0,9.535-2.015,12.831-5.313 c3.268-3.266,5.295-7.812,5.295-12.818C358.256,202.773,356.229,198.227,352.961,194.959z M340.13,182.143 c7.064,0,13.505,2.867,18.126,7.507c4.626,4.64,7.511,11.048,7.511,18.128c0,7.082-2.885,13.49-7.511,18.131 c-4.621,4.637-11.062,7.506-18.126,7.506c-7.082,0-13.509-2.869-18.13-7.506c-4.64-4.641-7.508-11.049-7.508-18.131 c0-7.08,2.868-13.488,7.508-18.128C326.621,185.01,333.048,182.143,340.13,182.143z M276.755,212.051v-11.779l17.06-2.564 l0.52-2.167l0.639-2.229l-13.459-10.713l7.507-13.001l16.024,6.317l1.572-1.678l1.633-1.556l-6.286-16.023l12.985-7.508 l10.729,13.49l2.197-0.672l2.183-0.52l2.579-17.03h15l2.548,17.03l2.196,0.52l2.197,0.672l10.742-13.49l12.989,7.508 l-6.304,16.023l1.65,1.586l1.555,1.647l16.038-6.317l7.493,13.001l-13.459,10.713l0.643,2.198l0.516,2.197l17.045,2.564v15.015 l-17.045,2.563l-0.516,2.168l-0.643,2.196l13.459,10.745l-7.493,13l-16.038-6.316l-1.555,1.647l-1.65,1.586l6.304,16.022 l-12.989,7.509l-10.742-13.49l-2.197,0.672l-2.196,0.52l-2.548,17.03h-15l-2.579-17.03l-2.183-0.52l-2.197-0.672l-10.729,13.49 l-12.985-7.509l6.286-16.022l-1.633-1.556l-1.572-1.678l-16.024,6.316l-7.507-13l13.459-10.713l-0.639-2.199l-0.52-2.197 l-17.06-2.563V212.051z M284.262,207.777v1.039l15.993,2.411l0.428,2.746c0.211,1.343,0.516,2.716,0.885,4.151 c0.379,1.404,0.824,2.776,1.313,4.027l0.989,2.564l-12.666,10.102l1.054,1.803l15.077-5.923l1.709,2.138 c0.855,1.037,1.8,2.105,2.871,3.174c1.066,1.037,2.105,1.982,3.144,2.838l2.151,1.709l-5.938,15.076l1.832,1.069l10.072-12.666 l2.562,0.978c1.253,0.488,2.594,0.945,4.061,1.313c1.403,0.396,2.808,0.701,4.151,0.885l2.717,0.426l2.411,15.993h2.105 l2.411-15.993l2.717-0.426c1.34-0.184,2.716-0.488,4.147-0.885c1.421-0.367,2.78-0.824,4.047-1.313l2.562-0.978l10.086,12.666 l1.832-1.069l-5.92-15.045l2.119-1.74c1.039-0.823,2.092-1.801,3.159-2.869c1.07-1.037,2.015-2.105,2.839-3.143l1.74-2.138 L388,236.621l1.038-1.832L376.4,224.717l0.979-2.564c0.488-1.219,0.913-2.594,1.31-4.027c0.368-1.436,0.674-2.809,0.888-4.151 l0.425-2.746l15.993-2.411v-2.076l-15.993-2.41l-0.425-2.746c-0.214-1.345-0.52-2.717-0.888-4.152 c-0.364-1.404-0.821-2.775-1.31-4.029l-0.992-2.563l12.651-10.07L388,178.937l-15.078,5.921l-1.74-2.136 c-0.824-1.037-1.769-2.106-2.839-3.143c-1.067-1.069-2.12-2.046-3.159-2.869l-2.119-1.741l5.92-15.045l-1.832-1.068 l-10.086,12.666l-2.562-1.008c-1.267-0.458-2.626-0.916-4.047-1.283c-1.432-0.396-2.808-0.701-4.147-0.914l-2.717-0.398 l-2.411-15.99h-2.105l-2.411,15.99l-2.717,0.398c-1.344,0.213-2.748,0.518-4.151,0.885c-1.467,0.396-2.808,0.854-4.061,1.313 l-2.562,1.008l-10.072-12.666l-1.832,1.068L317.209,175l-2.151,1.71c-1.038,0.854-2.077,1.8-3.144,2.837 c-1.071,1.068-2.016,2.138-2.871,3.175l-1.709,2.136l-15.077-5.921l-1.054,1.8l12.666,10.103l-0.989,2.563 c-0.488,1.254-0.934,2.625-1.313,4.061c-0.369,1.404-0.674,2.776-0.885,4.121l-0.428,2.746l-15.993,2.381V207.777z M351.711,94.886c-1.404,0-2.898,0.915-3.358,2.106c-1.249,2.502,0.642,5.371,3.358,5.371h7.507c1.403,0,2.899-0.916,3.358-2.105 c1.25-2.505-0.643-5.372-3.358-5.372H351.711z M321.709,94.886c-1.404,0-2.882,0.915-3.355,2.106 c-1.253,2.502,0.639,5.371,3.355,5.371h7.51c1.418,0,2.898-0.916,3.373-2.105c1.249-2.505-0.656-5.372-3.373-5.372H321.709z M291.723,94.886c-1.418,0-2.898,0.915-3.372,2.106c-1.25,2.502,0.656,5.371,3.372,5.371h7.493c1.418,0,2.898-0.916,3.373-2.105 c1.253-2.505-0.656-5.372-3.373-5.372H291.723z M261.724,94.886c-1.421,0-2.885,0.915-3.372,2.106 c-1.253,2.502,0.656,5.371,3.372,5.371h7.493c1.432,0,2.898-0.916,3.387-2.105c1.249-2.505-0.671-5.372-3.387-5.372H261.724z M249.714,120.338c0,1.436,0.913,2.899,2.106,3.389c2.502,1.252,5.383-0.672,5.383-3.389v-7.477c0-1.436-0.912-2.898-2.105-3.389 c-2.502-1.25-5.384,0.672-5.384,3.389V120.338z M249.714,150.34c0,1.436,0.913,2.9,2.106,3.389 c2.502,1.25,5.383-0.673,5.383-3.389v-7.478c0-1.434-0.912-2.898-2.105-3.388c-2.502-1.252-5.384,0.672-5.384,3.388V150.34z M249.714,180.34c0,1.436,0.913,2.901,2.106,3.389c2.502,1.222,5.383-0.672,5.383-3.389v-7.506c0-1.404-0.912-2.9-2.105-3.357 c-2.502-1.253-5.384,0.641-5.384,3.357V180.34z M249.714,210.342c0,1.405,0.913,2.9,2.106,3.358 c2.502,1.251,5.383-0.643,5.383-3.358v-7.508c0-1.403-0.912-2.898-2.105-3.356c-2.502-1.251-5.384,0.641-5.384,3.356V210.342z M249.714,240.344c0,1.404,0.913,2.899,2.106,3.357c2.502,1.251,5.383-0.641,5.383-3.357v-7.508c0-1.404-0.912-2.899-2.105-3.357 c-2.502-1.251-5.384,0.641-5.384,3.357V240.344z M238.986,252.123c-1.421,0-2.885,0.916-3.373,2.106 c-1.253,2.503,0.67,5.403,3.373,5.403h7.493c1.432,0,2.899-0.946,3.387-2.138c1.253-2.473-0.67-5.372-3.387-5.372H238.986z M209.001,252.123c-1.436,0-2.902,0.916-3.39,2.106c-1.235,2.503,0.673,5.403,3.39,5.403h7.493c1.418,0,2.899-0.946,3.369-2.138 c1.253-2.473-0.656-5.372-3.369-5.372H209.001z M178.998,252.123c-1.418,0-2.899,0.916-3.373,2.106 c-1.253,2.503,0.656,5.403,3.373,5.403h7.493c1.418,0,2.899-0.946,3.373-2.138c1.25-2.473-0.656-5.372-3.373-5.372H178.998z M148.995,252.123c-1.417,0-2.898,0.916-3.373,2.106c-1.235,2.503,0.656,5.403,3.373,5.403h7.511c1.404,0,2.898-0.946,3.355-2.138 c1.253-2.473-0.639-5.372-3.355-5.372H148.995z M119.01,252.123c-1.418,0-2.899,0.916-3.373,2.106 c-1.25,2.503,0.656,5.403,3.373,5.403h7.493c1.421,0,2.899-0.946,3.373-2.138c1.235-2.473-0.656-5.372-3.373-5.372H119.01z M97.844,468.907c-2.074,0-3.751-1.678-3.751-3.753c0-2.047,1.677-3.756,3.751-3.756h218.312c2.074,0,3.752,1.709,3.752,3.756 c0,2.075-1.678,3.753-3.752,3.753H97.844z M225.692,485.816c-2.074,0-3.751-1.709-3.751-3.756c0-2.074,1.677-3.753,3.751-3.753 h151.06c2.06,0,3.74,1.679,3.74,3.753c0,2.047-1.681,3.756-3.74,3.756H225.692z M89.239,485.297c-2.06,0-3.755-1.68-3.755-3.754 c0-2.075,1.695-3.755,3.755-3.755h71.601c2.06,0,3.752,1.68,3.752,3.755c0,2.074-1.692,3.754-3.752,3.754H89.239z M33.508,166.515 c0,2.076-1.692,3.755-3.752,3.755c-2.078,0-3.755-1.679-3.755-3.755V55.027c0-7.938,3.236-15.139,8.454-20.357 c5.25-5.25,12.452-8.486,20.387-8.486h64.063c2.074,0,3.752,1.68,3.752,3.756c0,2.044-1.678,3.753-3.752,3.753H54.842 c-5.861,0-11.199,2.382-15.077,6.226c-3.875,3.906-6.257,9.248-6.257,15.109V166.515z M457.157,33.692 c-2.074,0-3.755-1.709-3.755-3.753c0-2.076,1.681-3.756,3.755-3.756c7.936,0,15.137,3.236,20.355,8.455s8.486,12.451,8.486,20.389 v47.121c0,2.076-1.695,3.754-3.756,3.754c-2.074,0-3.751-1.678-3.751-3.754V55.027c0-5.861-2.411-11.203-6.289-15.078 C468.356,36.074,463.019,33.692,457.157,33.692z M363.553,461.398c2.06,0,3.754,1.709,3.754,3.756 c0,2.075-1.694,3.753-3.754,3.753H334.01c-2.074,0-3.756-1.678-3.756-3.753c0-2.047,1.682-3.756,3.756-3.756H363.553z M389.221,102.363c1.404,0,2.885-0.916,3.355-2.105c1.252-2.505-0.639-5.372-3.355-5.372h-7.51c-1.418,0-2.899,0.915-3.373,2.106 c-1.25,2.502,0.656,5.371,3.373,5.371H389.221z" style="fill-rule:evenodd;clip-rule:evenodd;"/> </g> </g> <g id="Layer_1"/> </g>

</svg>