<!DOCTYPE svg PUBLIC "-//W3C//DTD SVG 1.1//EN" "http://www.w3.org/Graphics/SVG/1.1/DTD/svg11.dtd">

<!-- Uploaded to: SVG Repo, www.svgrepo.com, Transformed by: SVG Repo Mixer Tools -->
<svg fill="#D71633" height="42px" width="42px" version="1.1" id="Capa_1" xmlns="http://www.w3.org/2000/svg" xmlns:xlink="http://www.w3.org/1999/xlink" viewBox="0 0 486.797 486.797" xml:space="preserve">

<g id="SVGRepo_bgCarrier" stroke-width="0"/>

<g id="SVGRepo_tracerCarrier" stroke-linecap="round" stroke-linejoin="round"/>

<g id="SVGRepo_iconCarrier"> <g> <path d="M259.789,404.822v15.511c0,12.259,9.934,22.184,22.185,22.184c12.265,0,22.199-9.925,22.199-22.184v-15.519 c-0.016,0-0.032,0.008-0.049,0.008H259.789z"/> <path d="M308.521,88.14c21.279,0,38.528-19.74,38.528-44.074C347.049,19.732,329.8,0,308.521,0 c-21.278,0-38.526,19.732-38.526,44.066C269.994,68.4,287.242,88.14,308.521,88.14z"/> <path d="M431.88,255.891h-2.903l-14.805-14.798l-7.538-7.522c5.649-5.497,7.57-14.05,3.825-21.454l-49.939-98.342 c-3.507-6.935-10.821-10.648-18.151-9.981c-0.255-0.016-67.44-0.016-67.695,0c-7.315-0.666-14.614,3.047-18.137,9.981 l-17.026,33.522c1.189,1.506,2.252,3.141,3.157,4.903l44.462,87.594l5.46,10.75c4.142,8.18,4.014,17.32,0.619,25.128l8.885,8.878 h2.031c0.017,0,0.033,0.006,0.049,0.006c3.237,0.008,6.188,0.96,8.885,2.341c6.476,3.309,11.06,9.87,11.06,17.645v80.277 c0,7.777-4.585,14.338-11.06,17.654v18.693c0,12.258,9.935,22.183,22.185,22.183c12.266,0,22.199-9.925,22.199-22.183v-59.8h-1.397 c-11.043,0-19.993-8.966-19.993-19.995v-80.285c0-7.767,4.555-14.328,11.045-17.637c2.728-1.389,5.681-2.357,8.948-2.357h1.635 V189.91l19.788,38.949c0.951,1.888,2.237,3.443,3.682,4.84l-7.411,7.394l-14.773,14.798h-2.92c-2.888,0-5.22,2.324-5.22,5.196 v80.285c0,2.873,2.332,5.205,5.22,5.205h75.834c2.89,0,5.206-2.332,5.206-5.205v-80.285 C437.086,258.215,434.77,255.891,431.88,255.891z M384.212,241.093l3.396-3.388c2.048,0.754,4.175,1.279,6.363,1.279 c2.127,0,4.254-0.501,6.349-1.271l3.38,3.38l14.805,14.798h-49.097L384.212,241.093z"/> <path d="M180.766,131.587c21.279,0,38.528-19.732,38.528-44.059c0-24.342-17.249-44.082-38.528-44.082 c-21.278,0-38.528,19.74-38.528,44.082C142.237,111.855,159.487,131.587,180.766,131.587z"/> <path d="M304.125,299.338h-2.903l-14.805-14.788l-7.538-7.53c2.937-2.849,4.682-6.443,5.284-10.395 c0.54-3.674,0.35-7.497-1.459-11.059l-49.922-98.344c-3.539-6.942-10.839-10.64-18.153-9.98c-0.095,0-9.6-0.008-21.471-0.008 c-19.771,0-46.064,0-46.239,0.008c-7.315-0.66-14.614,3.047-18.138,9.98l-49.937,98.344c-3.476,6.846-2.27,14.843,2.428,20.358 l-8.633,8.625l-14.789,14.788h-2.936c-2.871,0-5.204,2.333-5.204,5.205v80.277c0,2.873,2.333,5.206,5.204,5.206h75.834 c2.873,0,5.204-2.333,5.204-5.206v-50.801c2.938,3.182,7.046,5.237,11.711,5.237h3.096v45.564c0,10.576-8.316,19.042-18.726,19.741 v59.22c0,12.258,9.934,22.185,22.2,22.185c12.25,0,22.184-9.927,22.184-22.185V339.255h8.885v125.358 c0,12.258,9.935,22.183,22.186,22.183c12.266,0,22.199-9.925,22.199-22.183v-59.792h-1.398c-11.028,0-19.993-8.973-19.993-20.002 v-45.564h5.585c3.492,0,6.553-1.357,9.189-3.253v48.817c0,2.873,2.332,5.206,5.22,5.206h75.834c2.889,0,5.205-2.333,5.205-5.206 v-80.277C309.33,301.671,307.014,299.338,304.125,299.338z M68.308,299.338l14.79-14.788l4.046-4.056 c2.634,1.302,5.427,1.937,8.173,1.937c1.539,0,3.062-0.239,4.537-0.619l2.729,2.738l14.79,14.788H68.308z M127.846,299.338 l-14.805-14.788l-6.283-6.293c1.998-1.594,3.807-3.506,5.045-5.942l19.788-38.972v51.373v14.622H127.846z M229.941,299.338V284.55 v-26.691v-24.5l17.375,34.203l2.397,4.753c0.952,1.88,2.237,3.443,3.682,4.841l-7.411,7.395l-14.773,14.788H229.941z M241.652,299.338l14.805-14.788l3.396-3.397c2.047,0.754,4.174,1.277,6.362,1.277c2.127,0,4.253-0.5,6.349-1.269l3.395,3.388 l14.79,14.788H241.652z"/> </g> </g>

</svg>