<!DOCTYPE svg PUBLIC "-//W3C//DTD SVG 1.1//EN" "http://www.w3.org/Graphics/SVG/1.1/DTD/svg11.dtd">

<!-- Uploaded to: SVG Repo, www.svgrepo.com, Transformed by: SVG Repo Mixer Tools -->
<svg fill="#000000" version="1.1" id="Layer_1" xmlns="http://www.w3.org/2000/svg" xmlns:xlink="http://www.w3.org/1999/xlink" width="48px" height="48px" viewBox="0 0 256 190" enable-background="new 0 0 256 190" xml:space="preserve">

<g id="SVGRepo_bgCarrier" stroke-width="0"/>

<g id="SVGRepo_tracerCarrier" stroke-linecap="round" stroke-linejoin="round"/>

<g id="SVGRepo_iconCarrier"> <path d="M48.12,27.903C48.12,13.564,59.592,2,74.023,2c14.339,0,25.903,11.564,25.903,25.903 C99.834,42.335,88.27,53.806,74.023,53.806C59.684,53.806,48.12,42.242,48.12,27.903z M191,139h-47V97c0-20.461-17.881-37-38-37H43 C20.912,60,1.99,79.14,2,98v77c-0.026,8.533,6.001,12.989,12,13c6.014,0.011,12-4.445,12-13v-75h8v88h78v-88h8l0.081,50.37 c-0.053,8.729,5.342,12.446,10.919,12.63h60C207.363,163,207.363,139,191,139z M243.604,88.319c0.011-0.371,0.042-0.625,0.042-0.999 c0-21.939-17.861-39.752-39.801-39.752c-11.266,0-21.444,4.669-28.678,12.218l9.127,9.09c4.914-5.203,11.864-8.451,19.563-8.451 c14.829,0,26.9,12.065,26.9,26.894c0,0.375-0.005,0.627-0.021,0.999h-10.432l16.875,16.877L254,88.319H243.604z M187.389,88.319 l-16.875-16.637l-16.822,16.637h10.42c0.596,21.423,18.17,38.791,39.734,38.791c10.683,0,20.408-4.233,27.56-11.112l-9.132-9.096 c-4.816,4.537-11.297,7.317-18.418,7.317c-14.454,0-26.311-11.584-26.9-25.901H187.389z"/> </g>

</svg>