<?xml version="1.0" encoding="iso-8859-1"?>
<!-- Uploaded to: SVG Repo, www.svgrepo.com, Generator: SVG Repo Mixer Tools -->
<svg fill="#000000" height="48px" width="48px" version="1.1" id="Layer_1" xmlns="http://www.w3.org/2000/svg" xmlns:xlink="http://www.w3.org/1999/xlink" 
	 viewBox="0 0 512 512" xml:space="preserve">
<g>
	<g>
		<path d="M240.794,113.393H139.421v133.949h101.373v59.81h131.784v-59.81V113.393H240.794z M190.108,216.93h-20.275v-73.125h20.275
			V216.93z M240.794,216.93H220.52v-73.125h20.275V216.93z M342.167,276.74h-70.961v-29.398h70.961V276.74z M342.167,216.93h-70.961
			v-73.125h70.961V216.93z"/>
	</g>
</g>
<g>
	<g>
		<path d="M490.171,71.458V41.046h-22.302H271.206V0h-30.412v41.046H44.131H21.829v30.412h22.302v277.63H21.829V379.5h22.302
			h112.028l-26.557,126.239l29.76,6.261l15.584-74.08h65.847v73.992h30.412V437.92h65.847L352.636,512l29.76-6.261L355.839,379.5
			h112.028h22.302v-30.412h-22.302V71.458H490.171z M240.794,407.508h-59.449l5.892-28.008h53.557V407.508z M271.207,407.508V379.5
			h53.557l5.892,28.008H271.207z M437.457,349.088H74.543V71.458h362.914V349.088z"/>
	</g>
</g>
</svg>