<?xml version="1.0" encoding="iso-8859-1"?>
<!-- Uploaded to: SVG Repo, www.svgrepo.com, Generator: SVG Repo Mixer Tools -->
<!DOCTYPE svg PUBLIC "-//W3C//DTD SVG 1.1//EN" "http://www.w3.org/Graphics/SVG/1.1/DTD/svg11.dtd">
<svg fill="#000000" version="1.1" id="Capa_1" xmlns="http://www.w3.org/2000/svg" xmlns:xlink="http://www.w3.org/1999/xlink" 
	 width="48px" height="48px" viewBox="0 0 500 500" xml:space="preserve">
<g>
	<g>
		<path d="M496.111,389.569c-0.146,0.051-14.798,4.975-30.353,4.975c-23.851,0-36.087-11.206-36.369-33.229
			c0.281-22.099,12.52-33.304,36.371-33.304c15.515,0,30.205,4.923,30.352,4.974c0.297,0.102,0.604,0.151,0.908,0.154
			c1.637,0.064,2.979-1.293,2.979-2.928c0-0.493-0.122-0.96-0.338-1.368c-0.745-1.815-4.662-10.681-13.448-19.583
			c-8.898-9.016-24.682-19.766-49.338-19.766c-38.926,0-56.072,32.426-61.301,45.187H267.926v-52.522h54.456
			c3.101,0,5.612-2.514,5.612-5.612v-67.204c0-3.1-2.513-5.612-5.612-5.612H178.607c-3.1,0-5.612,2.513-5.612,5.612v67.204
			c0,3.101,2.513,5.612,5.612,5.612h56.241v52.521H124.409c-5.23-12.76-22.379-45.188-61.304-45.188
			c-24.655,0-40.438,10.75-49.337,19.767c-9.644,9.774-13.42,19.499-13.576,19.909c-0.404,1.061-0.159,2.259,0.628,3.074
			c0.787,0.817,1.976,1.106,3.051,0.742c0.146-0.049,14.838-4.974,30.351-4.974c23.853,0,36.09,11.205,36.372,33.228
			c-0.282,22.098-12.518,33.304-36.37,33.305c-15.516,0.001-30.207-4.926-30.353-4.975c-1.073-0.362-2.264-0.076-3.051,0.742
			c-0.788,0.817-1.032,2.016-0.628,3.075c0.156,0.408,3.932,10.135,13.577,19.909c8.899,9.019,24.682,19.768,49.337,19.768
			c38.931,0,56.076-32.428,61.304-45.188h110.439v71.313c0,1.617,1.311,2.93,2.929,2.93h27.22c1.618,0,2.93-1.312,2.93-2.93v-71.313
			h107.647c5.227,12.761,22.373,45.188,61.303,45.188c24.656,0,40.439-10.749,49.338-19.768
			c9.646-9.774,13.421-19.501,13.577-19.909c0.404-1.06,0.16-2.259-0.628-3.075C498.375,389.493,497.187,389.202,496.111,389.569z"
			/>
		<path d="M13.419,284.733c3.064,1.324,6.604,0.885,9.253-1.146c0.202-0.156,20.529-13.396,44.494-13.396
			c19.049,0,35.253,7.918,48.163,27.748c1.733,2.664,4.665,4.186,7.716,4.186c0.13,0,0.26-0.003,0.391-0.01
			c4.91-0.197,8.83-4.238,8.83-9.197c0-0.387-0.024-0.766-0.07-1.139c-1.833-30.457,5.501-72.672,31.594-100.493
			c19.979-21.301,48.611-32.101,85.103-32.101l0.656,0.001l0.689-0.002c37.103,0,66.043,10.801,86.022,32.101
			c32.056,34.176,31.538,83.763,30.617,98.148c-0.267,4.176,2.315,8.006,6.286,9.325c3.973,1.319,8.332-0.208,10.615-3.714
			c12.479-19.169,28.043-25.686,46.261-25.686c24.464,0,45.992,13.905,46.191,14.067c2.626,2.134,6.213,2.655,9.337,1.354
			c3.125-1.297,5.286-4.207,5.627-7.572c0.211-2.086,4.975-51.557-12.454-90.719c-2.014-4.526-7.252-6.647-11.85-4.795l-2.958,1.191
			c-10.759,4.333-35.367,14.248-49.224,19.768c-2.064-3.989-5.228-9.267-10.059-16.453c-2.778-4.131-5.534-8.038-7.759-11.128
			c8.741-8.38,25.46-24.478,37.435-36.45c3.041-3.041,3.571-7.781,1.279-11.419c-29.025-46.04-66.22-67.86-92.312-78.061
			c-28.475-11.132-50.116-11.261-51.023-11.261c-4.603,0-8.496,3.397-9.12,7.958l-6.92,50.572h-53.355l-6.919-50.574
			c-0.624-4.56-4.518-7.957-9.12-7.957c-0.907,0-22.549,0.127-51.024,11.259c-26.091,10.201-63.285,32.023-92.309,78.062
			c-2.293,3.638-1.762,8.377,1.278,11.417c11.974,11.974,28.692,28.073,37.435,36.453c-2.226,3.09-4.983,6.997-7.759,11.128
			c-4.832,7.186-7.994,12.464-10.059,16.453c-14.345-5.714-40.211-16.138-50.16-20.147l-2.02-0.814
			c-4.598-1.852-9.836,0.268-11.851,4.796c-17.43,39.163-12.667,88.634-12.455,90.72C8.248,280.53,10.356,283.411,13.419,284.733z
			 M33.939,202.236c16.224,6.536,45.954,18.499,52.528,21.027c2.83,1.089,8.254,2.413,12.496-8.09
			c4.242-10.503,12.662-22.184,22.8-35.621c2.816-3.732,2.387-8.983-0.997-12.208c-0.234-0.225-21.298-20.302-37.664-36.472
			c20.475-30.076,46.901-51.687,78.644-64.282c15.681-6.222,29.116-8.686,37.144-9.661l6.832,49.937
			c0.625,4.559,4.519,7.956,9.121,7.956h69.418c4.602,0,8.496-3.397,9.121-7.956l6.832-49.94
			C320.518,59.402,375.53,71.542,416,130.877c-16.365,16.165-37.427,36.242-37.662,36.467c-3.385,3.225-3.812,8.476-0.997,12.208
			c10.139,13.434,18.956,26.224,22.801,35.621c3.844,9.397,9.663,9.181,12.496,8.09c6.586-2.531,36.181-14.441,52.528-21.026
			c7.031,20.343,8.364,42.976,8.328,57.597c-10.624-5.773-26.192-8.883-43.455-8.883c-12.574,0-29.205,0.297-45.102,14.432
			c-2.008-24.508-9.744-59.5-35.249-86.691c-23.599-25.16-57.059-37.917-99.451-37.917l-0.692,0.002h-0.652
			c-41.782,0-74.933,12.756-98.531,37.915c-26.355,28.1-34.228,64.293-36.223,89.452c-16.498-14.838-33.863-16.364-46.972-16.364
			c-16.518,0-31.35,3.433-41.552,8.598C25.543,245.778,26.821,222.834,33.939,202.236z"/>
	</g>
</g>
</svg>