<?xml version="1.0" encoding="utf-8"?>

<!DOCTYPE svg PUBLIC "-//W3C//DTD SVG 1.0//EN" "http://www.w3.org/TR/2001/REC-SVG-20010904/DTD/svg10.dtd">
<!-- Uploaded to: SVG Repo, www.svgrepo.com, Generator: SVG Repo Mixer Tools -->
<svg version="1.0" id="Layer_1" xmlns="http://www.w3.org/2000/svg" xmlns:xlink="http://www.w3.org/1999/xlink" 
	 width="24px" height="24px" viewBox="0 0 64 64" enable-background="new 0 0 64 64" xml:space="preserve">
<g>
	<path fill="#231F20" d="M59,29H47c-1.657,0-3,1.344-3,3s1.343,3,3,3h12c1.657,0,3-1.344,3-3S60.657,29,59,29z"/>
	<path fill="#231F20" d="M57.312,44.57l-11.275-4.104c-1.559-0.566-3.279,0.236-3.846,1.793c-0.566,1.556,0.235,3.277,1.793,3.845
		l11.276,4.105c1.558,0.565,3.278-0.238,3.845-1.793C59.672,46.858,58.87,45.137,57.312,44.57z"/>
	<path fill="#231F20" d="M46.036,23.53l11.276-4.104c1.557-0.566,2.359-2.289,1.793-3.843c-0.566-1.558-2.288-2.362-3.846-1.796
		l-11.275,4.105c-1.559,0.566-2.36,2.289-1.794,3.846C42.757,23.294,44.479,24.098,46.036,23.53z"/>
	<rect x="22" fill="#231F20" width="2" height="22"/>
	<rect x="22" y="42" fill="#231F20" width="2" height="22"/>
	<path fill="#231F20" d="M30,42h-4v22h4c2.211,0,4-1.789,4-4V46C34,43.789,32.211,42,30,42z"/>
	<path fill="#231F20" d="M30,0h-4v22h4c2.211,0,4-1.789,4-4V4C34,1.789,32.211,0,30,0z"/>
	<path fill="#231F20" d="M12.473,0.309c-0.492,0.203-0.938,0.496-1.309,0.871C10.766,1.578,2,12,2,32s8.316,29.688,8.672,30.219
		c0.113,0.172,0.262,0.309,0.395,0.457c0.062,0.066,0.109,0.137,0.176,0.199c0.328,0.316,0.699,0.562,1.102,0.742
		c0.086,0.043,0.176,0.07,0.266,0.102C13.055,63.883,13.52,64,13.992,64C13.996,64,14,64,14,64h6V0h-6
		C13.48,0,12.961,0.105,12.473,0.309z"/>
</g>
</svg>